<?xml version="1.0" encoding="UTF-8"?>
<svg version="1.1" xmlns="http://www.w3.org/2000/svg" width="500" height="500">
<path d="M0 0 C165 0 330 0 500 0 C500 165 500 330 500 500 C335 500 170 500 0 500 C0 335 0 170 0 0 Z " fill="#F3EBDF" transform="translate(0,0)"/>
<path d="M0 0 C13.32375 -0.0825 26.6475 -0.165 40.375 -0.25 C44.52368652 -0.28641602 48.67237305 -0.32283203 52.94677734 -0.36035156 C114.12193994 -0.67345861 114.12193994 -0.67345861 131.94140625 16.765625 C142.9517386 28.71611855 142.74177787 43.01693301 142.18798828 58.47851562 C141.42331735 68.73503688 137.29476568 76.99324116 129.9375 84.0625 C106.51953325 104.21194922 68.06017072 99.37866114 39.5625 99.1875 C19.9790625 99.0946875 19.9790625 99.0946875 0 99 C0 66.33 0 33.66 0 0 Z " fill="#000000" transform="translate(103,196)"/>
<path d="M0 0 C13.53 0 27.06 0 41 0 C41 13.2 41 26.4 41 40 C58.49 40 75.98 40 94 40 C94 26.8 94 13.6 94 0 C107.53 0 121.06 0 135 0 C135 32.67 135 65.34 135 99 C121.14 99 107.28 99 93 99 C93 85.8 93 72.6 93 59 C75.84 59 58.68 59 41 59 C41 72.2 41 85.4 41 99 C27.47 99 13.94 99 0 99 C0 66.33 0 33.66 0 0 Z " fill="#000000" transform="translate(262,196)"/>
<path d="M0 0 C4.846875 -0.061875 9.69375 -0.12375 14.6875 -0.1875 C16.18756592 -0.21481201 17.68763184 -0.24212402 19.2331543 -0.27026367 C30.7130455 -0.34040557 42.845726 0.27405244 52 8 C57.17588946 13.14994515 58.24564451 17.54130008 58.3125 24.6875 C58.32501298 30.90853554 58.05676999 36.05149419 54 41 C45.09860419 49.90139581 33.58702884 51.08320794 21.484375 51.1953125 C18.90616789 51.18409031 16.32801498 51.15841543 13.75 51.125 C9.2125 51.08375 4.675 51.0425 0 51 C0 34.17 0 17.34 0 0 Z " fill="#EEE6DB" transform="translate(144,220)"/>
<path d="M0 0 C1.875 0.30859375 1.875 0.30859375 3.875 1.30859375 C5.50647635 4.57154645 5.5043407 7.79418554 4.875 11.30859375 C3.25 13.80859375 3.25 13.80859375 0.875 15.30859375 C-2.76132575 15.91464804 -4.40814769 15.78020711 -7.5 13.74609375 C-9.7335569 10.3957584 -9.61898209 8.26045045 -9.125 4.30859375 C-7.26851774 -0.21658176 -4.46544618 -0.27088185 0 0 Z " fill="#EDE5D9" transform="translate(201.125,314.69140625)"/>
<path d="M0 0 C1.423125 -0.061875 2.84625 -0.12375 4.3125 -0.1875 C5.51326172 -0.23970703 5.51326172 -0.23970703 6.73828125 -0.29296875 C9 0 9 0 10.765625 1.23046875 C13.05120891 4.50695454 12.61844382 8.18270885 12 12 C10.5 14.0625 10.5 14.0625 8 15 C5.27961564 15.21804607 2.73987761 15.13699388 0 15 C0 10.05 0 5.1 0 0 Z " fill="#E9E1D5" transform="translate(209,315)"/>
<path d="M0 0 C7.25581395 -0.48372093 7.25581395 -0.48372093 10.5 1.625 C12.48198314 4.76313998 12.67064058 6.34873465 12 10 C9.9375 12.875 9.9375 12.875 7 15 C4.69 15 2.38 15 0 15 C0 10.05 0 5.1 0 0 Z " fill="#928D86" transform="translate(274,315)"/>
<path d="M0 0 C6.93359375 -0.09765625 6.93359375 -0.09765625 9 0 C10.89092493 1.89092493 10 5.47272105 10 8 C10.28520405 9.67557379 10.59955696 11.34817245 11 13 C7.91111478 15.05925681 7.29064073 15.2390374 3.8125 15.125 C1.9253125 15.063125 1.9253125 15.063125 0 15 C0 10.05 0 5.1 0 0 Z " fill="#2C2A28" transform="translate(242,315)"/>
<path d="M0 0 C5.18742743 2.59371371 6.13253595 5.0615897 9 10 C9.33 6.7 9.66 3.4 10 0 C10.66 0 11.32 0 12 0 C12 4.95 12 9.9 12 15 C11.01 15 10.02 15 9 15 C7.39453125 12.8125 7.39453125 12.8125 5.8125 10 C5.28269531 9.071875 4.75289063 8.14375 4.20703125 7.1875 C3.80871094 6.465625 3.41039062 5.74375 3 5 C2.67 8.3 2.34 11.6 2 15 C1.34 15 0.68 15 0 15 C0 10.05 0 5.1 0 0 Z " fill="#33312F" transform="translate(303,315)"/>
<path d="M0 0 C0.99 0.33 1.98 0.66 3 1 C4.03865096 3.36695387 4.89577096 5.61555495 5.6875 8.0625 C5.91244141 8.72572266 6.13738281 9.38894531 6.36914062 10.07226562 C6.92334719 11.71130207 7.46306085 13.35522593 8 15 C7.01 14.67 6.02 14.34 5 14 C4.3125 11.9375 4.3125 11.9375 4 10 C1.05908413 10.18415432 1.05908413 10.18415432 -2 11 C-3.43637698 12.95163118 -3.43637698 12.95163118 -4 15 C-4.66 14.67 -5.32 14.34 -6 14 C-5.19074658 11.85294019 -4.37750887 9.7073817 -3.5625 7.5625 C-3.11003906 6.36753906 -2.65757812 5.17257812 -2.19140625 3.94140625 C-1 1 -1 1 0 0 Z " fill="#696560" transform="translate(293,315)"/>
<path d="M0 0 C1.875 0.30859375 1.875 0.30859375 3.875 1.30859375 C5.50647635 4.57154645 5.5043407 7.79418554 4.875 11.30859375 C3.25 13.80859375 3.25 13.80859375 0.875 15.30859375 C-2.76132575 15.91464804 -4.40814769 15.78020711 -7.5 13.74609375 C-9.7335569 10.3957584 -9.61898209 8.26045045 -9.125 4.30859375 C-7.26851774 -0.21658176 -4.46544618 -0.27088185 0 0 Z M-5.875 2.37109375 C-7.79820562 5.35206245 -7.43891972 7.85547681 -7.125 11.30859375 C-5.23999729 13.62422462 -5.23999729 13.62422462 -2.125 13.55859375 C0.98999729 13.62422462 0.98999729 13.62422462 2.875 11.30859375 C3.36856267 6.60376963 3.36856267 6.60376963 1.625 2.37109375 C-1.01923243 0.76566692 -3.23076757 0.76566692 -5.875 2.37109375 Z " fill="#252321" transform="translate(201.125,314.69140625)"/>
<path d="M0 0 C1.423125 -0.061875 2.84625 -0.12375 4.3125 -0.1875 C5.51326172 -0.23970703 5.51326172 -0.23970703 6.73828125 -0.29296875 C9 0 9 0 10.765625 1.23046875 C13.05120891 4.50695454 12.61844382 8.18270885 12 12 C10.5 14.0625 10.5 14.0625 8 15 C5.27961564 15.21804607 2.73987761 15.13699388 0 15 C0 10.05 0 5.1 0 0 Z M2 1 C2 4.96 2 8.92 2 13 C3.98 13 5.96 13 8 13 C10.32528287 10.67471713 10.29511025 10.15334102 10.3125 7 C10.32925781 6.29875 10.34601563 5.5975 10.36328125 4.875 C10.24339844 4.25625 10.12351563 3.6375 10 3 C6.90754997 0.53774984 6.90754997 0.53774984 2 1 Z " fill="#2B2A28" transform="translate(209,315)"/>
<path d="M0 0 C2.64 0 5.28 0 8 0 C8 0.33 8 0.66 8 1 C6.02 1 4.04 1 2 1 C2 2.65 2 4.3 2 6 C3.98 6 5.96 6 8 6 C8 6.66 8 7.32 8 8 C6.02 8 4.04 8 2 8 C2 9.65 2 11.3 2 13 C4.31 13 6.62 13 9 13 C9 13.66 9 14.32 9 15 C6.03 15 3.06 15 0 15 C0 10.05 0 5.1 0 0 Z " fill="#272524" transform="translate(225,315)"/>
<path d="M0 0 C0 0.33 0 0.66 0 1 C-2.31 1.66 -4.62 2.32 -7 3 C-7 6.3 -7 9.6 -7 13 C-4.69 13 -2.38 13 0 13 C0 13.66 0 14.32 0 15 C-6.49033655 15.36737754 -6.49033655 15.36737754 -8.70703125 13.76953125 C-10.33558697 11.54072236 -10.40239943 10.239943 -10.375 7.5 C-10.38273438 6.7265625 -10.39046875 5.953125 -10.3984375 5.15625 C-9.31194623 -0.72358513 -5.14352504 -0.29114293 0 0 Z " fill="#292826" transform="translate(189,315)"/>
<path d="M0 0 C0.66 0 1.32 0 2 0 C2.99 1.98 3.98 3.96 5 6 C6.32 4.02 7.64 2.04 9 0 C9.66 0.33 10.32 0.66 11 1 C10.360625 2.010625 9.72125 3.02125 9.0625 4.0625 C6.93151044 7.75219924 6.34460387 10.77860255 6 15 C5.34 15 4.68 15 4 15 C3.87882812 14.41992188 3.75765625 13.83984375 3.6328125 13.2421875 C2.66264526 8.71971558 1.56602217 4.36249034 0 0 Z " fill="#282725" transform="translate(255,315)"/>
<path d="M0 0 C1.98 0 3.96 0 6 0 C6.5625 1.9375 6.5625 1.9375 7 4 C6 5 6 5 2.9375 5.0625 C1.4834375 5.0315625 1.4834375 5.0315625 0 5 C0 3.35 0 1.7 0 0 Z " fill="#EAE2D7" transform="translate(244,323)"/>
<path d="M0 0 C2.64 0 5.28 0 8 0 C8.99 2.31 9.98 4.62 11 7 C10.01 6.67 9.02 6.34 8 6 C7.3125 3.9375 7.3125 3.9375 7 2 C4.05908413 2.18415432 4.05908413 2.18415432 1 3 C-0.43637698 4.95163118 -0.43637698 4.95163118 -1 7 C-1.66 6.67 -2.32 6.34 -3 6 C-2.01 4.02 -1.02 2.04 0 0 Z " fill="#201F1E" transform="translate(290,323)"/>
<path d="M0 0 C1.65 0 3.3 0 5 0 C5.33 1.65 5.66 3.3 6 5 C4.02 5 2.04 5 0 5 C0 3.35 0 1.7 0 0 Z " fill="#DED7CC" transform="translate(244,316)"/>
<path d="M0 0 C2 3 2 3 2.8125 5.625 C3.204375 6.40875 3.59625 7.1925 4 8 C6.54775306 8.89386164 6.54775306 8.89386164 9 9 C7.25 10.125 7.25 10.125 5 11 C2.30066074 10.07451225 1.28813232 9.57626463 0 7 C-0.04022391 4.6670134 -0.04320247 2.33293334 0 0 Z " fill="#393734" transform="translate(192,319)"/>
<path d="M0 0 C1.37562854 1.28965176 2.70766393 2.62689293 4 4 C4 4.66 4 5.32 4 6 C4.66 6 5.32 6 6 6 C6 6.99 6 7.98 6 9 C5.34 9 4.68 9 4 9 C0 3.70588235 0 3.70588235 0 0 Z " fill="#232220" transform="translate(308,321)"/>
<path d="M0 0 C1.670625 0.061875 1.670625 0.061875 3.375 0.125 C3.375 0.455 3.375 0.785 3.375 1.125 C2.446875 1.3725 1.51875 1.62 0.5625 1.875 C-2.78958325 3.18954245 -3.8127803 4.10463384 -5.625 7.125 C-5.75 4.75 -5.75 4.75 -5.625 2.125 C-3.625 0.125 -3.625 0.125 0 0 Z " fill="#1A1918" transform="translate(198.625,314.875)"/>
</svg>
